<svg width="371" height="98" viewBox="0 0 371 98" fill="none" xmlns="http://www.w3.org/2000/svg">
<path d="M312.838 16.8284H312.96C316.694 16.7995 320.068 16.399 323.337 16.0108C330.93 15.1064 337.495 14.3301 342.596 19.6696C346.459 23.7165 353.997 24.398 359.049 22.713C359.885 22.4364 360.955 21.978 361.963 21.3049C352.978 8.45812 337.971 0.0123596 320.999 0.0123596C313.231 0.0123596 305.872 1.78397 299.311 4.93477C300.227 8.27565 303.481 16.8284 312.838 16.8284Z" fill="#FF5B3E"/>
<path d="M302.168 82.1256C300.286 78.5122 297.652 75.7124 295.106 73.0034C290.314 67.9075 285.782 63.0965 290.431 55.32C294.403 48.6713 294.521 39.6812 290.707 33.4661C288.642 30.1005 284.632 26.2228 277.115 26.0412C273.377 32.9375 271.248 40.8088 271.248 49.1626C271.248 70.1073 284.591 88.0264 303.322 95.0873C304.447 93.3364 305.881 89.2605 302.172 82.1285L302.168 82.1256Z" fill="#00B8D0"/>
<path d="M361.909 46.0824C355.232 47.2717 347.718 52.8301 347.007 62.2212C346.372 70.5919 341.76 74.2878 338.055 77.2574C334.719 79.9292 332.306 81.8619 332.795 86.231C333.067 88.6344 334.041 90.4679 335.701 91.6903C337.654 93.1275 340.229 93.528 342.261 93.5817C359.091 85.6943 370.76 68.7508 370.76 49.1593C370.76 48.5522 370.735 47.9494 370.714 47.3464C368.034 45.802 364.739 45.579 361.913 46.0828L361.909 46.0824Z" fill="#FFF455"/>
<path d="M332.672 89.7408C330.554 88.2219 329.309 85.9949 328.981 83.1246C328.372 77.8561 331.649 75.298 334.814 72.8277C338.292 70.1135 341.884 67.3041 342.406 60.5701C343.173 50.703 351.255 44.8636 358.436 43.6152C361.605 43.0633 364.534 43.3716 367 44.3918C366.3 37.3037 363.902 30.688 360.198 24.9276C359.242 25.5519 358.151 26.0886 356.906 26.4922C355.096 27.0784 352.982 27.402 350.796 27.402C346.453 27.402 341.845 26.1229 338.873 23.0889C334.874 19.0043 329.76 19.5943 322.678 20.4166C319.67 20.763 316.263 21.1589 312.604 21.1855H312.469C302.565 21.1855 298.78 12.8259 297.563 9C290.346 12.8296 284.28 18.4255 280 25.186C285.869 25.6618 290.635 28.3722 293.575 33.0469C297.61 39.465 297.512 48.7115 293.33 55.5371C289.837 61.2358 293.026 64.5439 297.444 69.123C299.847 71.6126 302.566 74.4334 304.495 78.0422C308.23 85.0466 307.068 89.4929 305.74 91.8035C310.293 93.2234 315.146 94 320.184 94C325.761 94 331.112 93.0559 336.08 91.3315C334.898 90.9965 333.72 90.4978 332.669 89.744L332.672 89.7408ZM330.261 33.6177C330.684 33.6177 331.083 33.7585 331.459 33.9869L329.985 37.0894L333.249 36.526C333.522 37.3292 333.688 38.2428 333.688 39.225C333.688 42.3237 332.155 44.8323 330.262 44.8323C328.368 44.8323 326.835 42.3199 326.835 39.225C326.835 36.1263 328.368 33.6177 330.261 33.6177ZM306.691 39.225C306.691 36.1263 308.225 33.6177 310.118 33.6177C310.541 33.6177 310.94 33.7585 311.315 33.9869L309.841 37.0894L313.105 36.526C313.378 37.3292 313.544 38.2428 313.544 39.225C313.544 42.3237 312.011 44.8323 310.118 44.8323C308.225 44.8323 306.691 42.3199 306.691 39.225ZM320.329 63.7783C314.749 63.9229 310.109 59.5946 310.117 54.2119L330.262 44.8323C330.262 50.1161 325.815 63.7783 320.329 63.7783Z" fill="white"/>
<path d="M9.86402 86C6.53602 86 4.07202 85.008 2.47202 83.024C0.872021 81.04 0.0720215 78.384 0.0720215 75.056V30.32C0.0720215 25.456 1.38402 21.872 4.00802 19.568C6.69602 17.264 9.89602 16.112 13.608 16.112C17.128 16.112 20.104 17.264 22.536 19.568C25.032 21.872 26.856 25.52 28.008 30.512L35.496 63.056H37.992L45.48 30.512C46.632 25.52 48.456 21.872 50.952 19.568C53.512 17.264 56.552 16.112 60.072 16.112C63.784 16.112 66.952 17.264 69.576 19.568C72.264 21.872 73.608 25.456 73.608 30.32V75.056C73.608 78.384 72.776 81.04 71.112 83.024C69.512 85.008 67.048 86 63.72 86C60.52 86 58.056 85.008 56.328 83.024C54.6 81.04 53.736 78.384 53.736 75.056V49.232C53.736 48.592 53.64 48.016 53.448 47.504C53.32 46.928 52.904 46.64 52.2 46.64C51.624 46.64 51.208 46.928 50.952 47.504C50.696 48.016 50.504 48.592 50.376 49.232L46.728 73.424C46.28 76.048 45.736 78.32 45.096 80.24C44.52 82.096 43.592 83.536 42.312 84.56C41.032 85.52 39.176 86 36.744 86C34.376 86 32.52 85.52 31.176 84.56C29.896 83.536 28.936 82.096 28.296 80.24C27.72 78.32 27.24 76.048 26.856 73.424L23.112 49.232C23.048 48.592 22.888 48.016 22.632 47.504C22.376 46.928 21.928 46.64 21.288 46.64C20.648 46.64 20.232 46.928 20.04 47.504C19.848 48.016 19.752 48.592 19.752 49.232V75.056C19.752 78.384 18.888 81.04 17.16 83.024C15.496 85.008 13.064 86 9.86402 86Z" fill="white"/>
<path d="M108.944 86.288C105.104 86.224 101.424 85.712 97.9035 84.752C94.4475 83.792 91.3435 82.224 88.5915 80.048C85.8395 77.872 83.6635 74.96 82.0635 71.312C80.5275 67.664 79.7595 63.152 79.7595 57.776V25.232C79.7595 22.16 80.7515 19.888 82.7355 18.416C84.7835 16.88 87.1515 16.112 89.8395 16.112C92.4635 16.112 94.7995 16.88 96.8475 18.416C98.8955 19.888 99.9195 22.16 99.9195 25.232V53.264C99.9195 57.808 100.976 61.136 103.088 63.248C105.264 65.36 108.048 66.32 111.44 66.128C115.024 65.872 117.584 64.496 119.12 62C120.72 59.504 121.168 56.176 120.464 52.016C120.016 49.2 119.504 46.832 118.928 44.912C118.416 42.992 117.872 41.296 117.296 39.824C116.784 38.288 116.336 36.784 115.952 35.312C115.568 33.776 115.28 31.984 115.088 29.936C114.704 25.648 115.568 22.288 117.68 19.856C119.856 17.36 122.704 16.112 126.224 16.112C129.744 16.112 132.496 17.296 134.48 19.664C136.464 22.032 137.456 25.616 137.456 30.416V57.776C137.456 63.152 136.688 67.696 135.152 71.408C133.68 75.056 131.6 78 128.912 80.24C126.288 82.416 123.248 83.984 119.792 84.944C116.4 85.84 112.784 86.288 108.944 86.288Z" fill="white"/>
<path d="M154.239 86C151.039 86 148.607 85.008 146.943 83.024C145.279 81.04 144.447 78.384 144.447 75.056V30.032C144.447 26.704 145.055 24.016 146.271 21.968C147.551 19.856 149.183 18.32 151.167 17.36C153.215 16.4 155.423 15.92 157.791 15.92C161.311 15.92 164.287 16.848 166.719 18.704C169.151 20.56 171.039 23.824 172.383 28.496L182.751 63.92H184.287V27.056C184.287 23.664 185.151 21.008 186.879 19.088C188.607 17.104 191.071 16.112 194.271 16.112C197.599 16.112 200.063 17.104 201.663 19.088C203.327 21.008 204.159 23.664 204.159 27.056V70.448C204.159 75.824 202.975 79.792 200.607 82.352C198.239 84.912 194.911 86.192 190.623 86.192C186.271 86.192 182.879 85.04 180.447 82.736C178.015 80.432 176.159 77.04 174.879 72.56L168.063 49.232C167.935 48.592 167.679 48.016 167.295 47.504C166.975 46.928 166.527 46.64 165.951 46.64C165.247 46.64 164.767 46.928 164.511 47.504C164.255 48.016 164.127 48.592 164.127 49.232V75.056C164.127 78.384 163.295 81.04 161.631 83.024C159.967 85.008 157.503 86 154.239 86Z" fill="white"/>
<path d="M235.316 16.112C242.932 16.112 249.14 17.552 253.94 20.432C258.804 23.248 262.388 27.28 264.692 32.528C267.06 37.712 268.244 43.888 268.244 51.056C268.244 63.088 265.652 71.92 260.468 77.552C255.284 83.184 247.348 86 236.66 86H232.436C229.3 86 226.388 85.68 223.7 85.04C221.012 84.4 218.644 83.248 216.596 81.584C214.548 79.856 212.948 77.456 211.796 74.384C210.644 71.312 210.068 67.344 210.068 62.48C210.068 57.936 210.676 54 211.892 50.672C213.172 47.344 214.676 44.688 216.404 42.704C218.132 40.72 219.7 39.504 221.108 39.056L220.628 37.232H218.996C216.052 37.232 213.716 36.304 211.988 34.448C210.324 32.528 209.46 29.968 209.396 26.768C209.332 23.568 210.164 21.008 211.892 19.088C213.684 17.104 216.052 16.112 218.996 16.112H235.316ZM228.404 61.232C228.404 62.576 228.692 63.504 229.268 64.016C229.908 64.528 230.836 64.784 232.052 64.784H237.236C240.5 64.784 243.028 64.08 244.82 62.672C246.612 61.264 247.86 59.472 248.564 57.296C249.332 55.056 249.716 52.688 249.716 50.192C249.716 47.696 249.332 45.296 248.564 42.992C247.86 40.688 246.612 38.8 244.82 37.328C243.028 35.856 240.5 35.12 237.236 35.12H232.052C230.836 35.12 229.908 35.408 229.268 35.984C228.692 36.496 228.404 37.456 228.404 38.864V61.232Z" fill="white"/>
</svg>
