<svg width="113" height="39" viewBox="0 0 113 39" fill="none" xmlns="http://www.w3.org/2000/svg">
<path d="M4.02 35C2.98 35 2.21 34.69 1.71 34.07C1.21 33.45 0.96 32.62 0.96 31.58V17.6C0.96 16.08 1.37 14.96 2.19 14.24C3.03 13.52 4.03 13.16 5.19 13.16C6.29 13.16 7.22 13.52 7.98 14.24C8.76 14.96 9.33 16.1 9.69 17.66L12.03 27.83H12.81L15.15 17.66C15.51 16.1 16.08 14.96 16.86 14.24C17.66 13.52 18.61 13.16 19.71 13.16C20.87 13.16 21.86 13.52 22.68 14.24C23.52 14.96 23.94 16.08 23.94 17.6V31.58C23.94 32.62 23.68 33.45 23.16 34.07C22.66 34.69 21.89 35 20.85 35C19.85 35 19.08 34.69 18.54 34.07C18 33.45 17.73 32.62 17.73 31.58V23.51C17.73 23.31 17.7 23.13 17.64 22.97C17.6 22.79 17.47 22.7 17.25 22.7C17.07 22.7 16.94 22.79 16.86 22.97C16.78 23.13 16.72 23.31 16.68 23.51L15.54 31.07C15.4 31.89 15.23 32.6 15.03 33.2C14.85 33.78 14.56 34.23 14.16 34.55C13.76 34.85 13.18 35 12.42 35C11.68 35 11.1 34.85 10.68 34.55C10.28 34.23 9.98 33.78 9.78 33.2C9.6 32.6 9.45 31.89 9.33 31.07L8.16 23.51C8.14 23.31 8.09 23.13 8.01 22.97C7.93 22.79 7.79 22.7 7.59 22.7C7.39 22.7 7.26 22.79 7.2 22.97C7.14 23.13 7.11 23.31 7.11 23.51V31.58C7.11 32.62 6.84 33.45 6.3 34.07C5.78 34.69 5.02 35 4.02 35ZM34.9823 35.09C33.7823 35.07 32.6323 34.91 31.5323 34.61C30.4523 34.31 29.4823 33.82 28.6223 33.14C27.7623 32.46 27.0823 31.55 26.5823 30.41C26.1023 29.27 25.8623 27.86 25.8623 26.18V16.01C25.8623 15.05 26.1723 14.34 26.7923 13.88C27.4323 13.4 28.1723 13.16 29.0123 13.16C29.8323 13.16 30.5623 13.4 31.2023 13.88C31.8423 14.34 32.1623 15.05 32.1623 16.01V24.77C32.1623 26.19 32.4923 27.23 33.1523 27.89C33.8323 28.55 34.7023 28.85 35.7623 28.79C36.8823 28.71 37.6823 28.28 38.1623 27.5C38.6623 26.72 38.8023 25.68 38.5823 24.38C38.4423 23.5 38.2823 22.76 38.1023 22.16C37.9423 21.56 37.7723 21.03 37.5923 20.57C37.4323 20.09 37.2923 19.62 37.1723 19.16C37.0523 18.68 36.9623 18.12 36.9023 17.48C36.7823 16.14 37.0523 15.09 37.7123 14.33C38.3923 13.55 39.2823 13.16 40.3823 13.16C41.4823 13.16 42.3423 13.53 42.9623 14.27C43.5823 15.01 43.8923 16.13 43.8923 17.63V26.18C43.8923 27.86 43.6523 29.28 43.1723 30.44C42.7123 31.58 42.0623 32.5 41.2223 33.2C40.4023 33.88 39.4523 34.37 38.3723 34.67C37.3123 34.95 36.1823 35.09 34.9823 35.09ZM49.1372 35C48.1372 35 47.3772 34.69 46.8572 34.07C46.3372 33.45 46.0772 32.62 46.0772 31.58V17.51C46.0772 16.47 46.2672 15.63 46.6472 14.99C47.0472 14.33 47.5572 13.85 48.1772 13.55C48.8172 13.25 49.5072 13.1 50.2472 13.1C51.3472 13.1 52.2772 13.39 53.0372 13.97C53.7972 14.55 54.3872 15.57 54.8072 17.03L58.0472 28.1H58.5272V16.58C58.5272 15.52 58.7972 14.69 59.3372 14.09C59.8772 13.47 60.6472 13.16 61.6472 13.16C62.6872 13.16 63.4572 13.47 63.9572 14.09C64.4772 14.69 64.7372 15.52 64.7372 16.58V30.14C64.7372 31.82 64.3672 33.06 63.6272 33.86C62.8872 34.66 61.8472 35.06 60.5072 35.06C59.1472 35.06 58.0872 34.7 57.3272 33.98C56.5672 33.26 55.9872 32.2 55.5872 30.8L53.4572 23.51C53.4172 23.31 53.3372 23.13 53.2172 22.97C53.1172 22.79 52.9772 22.7 52.7972 22.7C52.5772 22.7 52.4272 22.79 52.3472 22.97C52.2672 23.13 52.2272 23.31 52.2272 23.51V31.58C52.2272 32.62 51.9672 33.45 51.4472 34.07C50.9272 34.69 50.1572 35 49.1372 35ZM74.4736 13.16C76.8536 13.16 78.7936 13.61 80.2936 14.51C81.8136 15.39 82.9336 16.65 83.6536 18.29C84.3936 19.91 84.7636 21.84 84.7636 24.08C84.7636 27.84 83.9536 30.6 82.3336 32.36C80.7136 34.12 78.2336 35 74.8936 35H73.5736C72.5936 35 71.6836 34.9 70.8436 34.7C70.0036 34.5 69.2636 34.14 68.6236 33.62C67.9836 33.08 67.4836 32.33 67.1236 31.37C66.7636 30.41 66.5836 29.17 66.5836 27.65C66.5836 26.23 66.7736 25 67.1536 23.96C67.5536 22.92 68.0236 22.09 68.5636 21.47C69.1036 20.85 69.5936 20.47 70.0336 20.33L69.8836 19.76H69.3736C68.4536 19.76 67.7236 19.47 67.1836 18.89C66.6636 18.29 66.3936 17.49 66.3736 16.49C66.3536 15.49 66.6136 14.69 67.1536 14.09C67.7136 13.47 68.4536 13.16 69.3736 13.16H74.4736ZM72.3136 27.26C72.3136 27.68 72.4036 27.97 72.5836 28.13C72.7836 28.29 73.0736 28.37 73.4536 28.37H75.0736C76.0936 28.37 76.8836 28.15 77.4436 27.71C78.0036 27.27 78.3936 26.71 78.6136 26.03C78.8536 25.33 78.9736 24.59 78.9736 23.81C78.9736 23.03 78.8536 22.28 78.6136 21.56C78.3936 20.84 78.0036 20.25 77.4436 19.79C76.8836 19.33 76.0936 19.1 75.0736 19.1H73.4536C73.0736 19.1 72.7836 19.19 72.5836 19.37C72.4036 19.53 72.3136 19.83 72.3136 20.27V27.26Z" fill="white"/>
<path d="M109.036 23.7457C109.036 26.7925 107.834 29.7158 105.692 31.8792C103.549 34.0425 100.639 35.2707 97.5966 35.2962C94.5538 35.3217 91.6241 34.1425 89.4456 32.0153C87.2671 29.8882 86.0162 26.9854 85.9652 23.9391C85.9143 20.8928 87.0675 17.9497 89.1736 15.7508C91.2798 13.5518 94.1683 12.275 97.2103 12.1985C100.252 12.122 103.201 13.252 105.415 15.3423C107.629 17.4326 108.928 20.314 109.03 23.359L97.5 23.7457H109.036Z" fill="#FF4B3E"/>
<path d="M95.6284 16.2299H95.6562C96.5124 16.2232 97.2861 16.1301 98.0359 16.0399C99.7771 15.8296 101.283 15.6491 102.452 16.8904C103.338 17.8312 105.067 17.9896 106.225 17.5979C106.417 17.5336 106.662 17.4271 106.893 17.2706C104.833 14.2841 101.392 12.3207 97.4998 12.3207C95.7183 12.3207 94.0308 12.7325 92.5264 13.465C92.7363 14.2417 93.4825 16.2299 95.6284 16.2299Z" fill="#254977"/>
<path d="M93.1814 31.4097C92.7499 30.5697 92.1459 29.9188 91.562 29.289C90.4632 28.1044 89.4238 26.9859 90.49 25.1781C91.4009 23.6325 91.4277 21.5426 90.5533 20.0977C90.0797 19.3153 89.1602 18.4139 87.4363 18.3716C86.5791 19.9749 86.0911 21.8047 86.0911 23.7467C86.0911 28.6158 89.1507 32.7814 93.4461 34.4229C93.704 34.0159 94.0329 33.0683 93.1824 31.4103L93.1814 31.4097Z" fill="#00B8D0"/>
<path d="M106.881 23.0306C105.35 23.3071 103.627 24.5993 103.464 26.7824C103.318 28.7284 102.261 29.5876 101.411 30.2779C100.646 30.899 100.093 31.3483 100.205 32.364C100.267 32.9227 100.491 33.349 100.871 33.6332C101.319 33.9672 101.91 34.0604 102.376 34.0729C106.235 32.2392 108.911 28.3004 108.911 23.7459C108.911 23.6048 108.905 23.4646 108.9 23.3245C108.286 22.9654 107.53 22.9136 106.882 23.0307L106.881 23.0306Z" fill="#FFF455"/>
<path d="M100.529 34.0955C100.015 33.7125 99.7131 33.1509 99.6335 32.427C99.4858 31.0984 100.281 30.4533 101.049 29.8303C101.892 29.1458 102.764 28.4373 102.891 26.7391C103.077 24.2507 105.037 22.7781 106.78 22.4633C107.548 22.3241 108.259 22.4019 108.857 22.6592C108.688 20.8716 108.106 19.2032 107.207 17.7505C106.975 17.908 106.71 18.0433 106.408 18.1451C105.969 18.2929 105.456 18.3745 104.926 18.3745C103.872 18.3745 102.754 18.052 102.033 17.2869C101.063 16.2568 99.8224 16.4056 98.1042 16.6129C97.3745 16.7003 96.5481 16.8001 95.6602 16.8068H95.6276C93.2248 16.8068 92.3064 14.6987 92.0111 13.7338C90.2603 14.6996 88.7885 16.1108 87.7502 17.8157C89.1741 17.9357 90.3305 18.6192 91.0438 19.7981C92.0227 21.4167 91.9987 23.7485 90.9843 25.4698C90.1367 26.907 90.9105 27.7412 91.9824 28.896C92.5654 29.5239 93.225 30.2352 93.6929 31.1453C94.599 32.9117 94.3171 34.033 93.995 34.6157C95.0995 34.9738 96.2769 35.1696 97.4993 35.1696C98.8522 35.1696 100.15 34.9316 101.356 34.4967C101.069 34.4122 100.783 34.2864 100.528 34.0963L100.529 34.0955ZM99.9441 19.9421C100.047 19.9421 100.144 19.9776 100.235 20.0352L99.877 20.8176L100.669 20.6755C100.735 20.8781 100.775 21.1085 100.775 21.3561C100.775 22.1376 100.403 22.7702 99.9442 22.7702C99.4849 22.7702 99.1129 22.1366 99.1129 21.3561C99.1129 20.5747 99.4849 19.9421 99.9441 19.9421ZM94.2258 21.3561C94.2258 20.5747 94.5978 19.9421 95.0571 19.9421C95.1597 19.9421 95.2565 19.9776 95.3476 20.0352L94.99 20.8176L95.7819 20.6755C95.8481 20.8781 95.8884 21.1085 95.8884 21.3561C95.8884 22.1376 95.5164 22.7702 95.0571 22.7702C94.5978 22.7702 94.2258 22.1366 94.2258 21.3561ZM97.5345 27.5481C96.1807 27.5846 95.0549 26.4931 95.0569 25.1356H99.9439C99.9439 26.4681 98.8653 27.5481 97.5345 27.5481Z" fill="white"/>
</svg>
